<svg width="93" height="248" viewBox="0 0 93 248" fill="none" xmlns="http://www.w3.org/2000/svg">
<circle cx="46.4999" cy="45.5" r="42" fill="white" stroke="#B70450" stroke-width="7"/>
<path d="M8.16598 224.764L5.29059 225.95L6.12976 228.944L9.76833 241.929L10.4679 244.426L13.0602 244.484C25.0623 244.753 43.133 241.636 58.6175 231.326C74.2604 220.91 87.0639 203.267 88.3401 175.092C89.2001 165.63 88.2762 151.387 82.5166 139.284C79.6076 133.171 75.4143 127.502 69.4962 123.335C63.5505 119.148 56.0509 116.611 46.7779 116.5C39.5324 116.414 28.9378 117.024 20.0404 121.207C15.5364 123.324 11.3579 126.408 8.31476 130.872C5.25687 135.358 3.5 141.014 3.5 148C3.5 151.497 3.60768 158.366 5.47678 164.25C6.41449 167.201 7.8984 170.249 10.3475 172.464C12.8421 174.72 16.0945 175.887 20.007 175.519C26.56 176.215 30.824 178.14 33.5028 180.464C36.1881 182.795 37.5424 185.751 37.8953 189.009C38.627 195.767 34.9888 203.734 29.6952 208.366C25.5427 211.999 20.888 215.824 16.8382 218.914C14.812 220.46 12.9621 221.803 11.4177 222.839C9.811 223.918 8.72525 224.534 8.16598 224.764Z" fill="white" stroke="#B70450" stroke-width="7"/>
</svg>
