<svg width="20" height="19" viewBox="0 0 20 19" fill="none" xmlns="http://www.w3.org/2000/svg">
<path d="M2.27599 17.2949L1.81158 18.1651C1.85802 18.1888 1.90644 18.2105 1.95585 18.2272L2.27599 17.2949ZM17.9622 8.35271C17.9622 10.2647 17.1223 11.8022 15.736 12.8864C14.3319 13.9843 12.3349 14.6328 10.0573 14.6328V16.604C12.6916 16.604 15.1411 15.8549 16.9543 14.4377C18.7882 13.0056 19.9384 10.9103 19.9384 8.35271H17.9622ZM2.15248 8.35271C2.15248 6.79944 2.94988 5.39598 4.35991 4.34733C5.77685 3.29473 7.78468 2.63143 10.0573 2.63143V0.660278C7.41809 0.660278 4.98044 1.42804 3.17912 2.76744C1.37089 4.1098 0.17627 6.06026 0.17627 8.35271H2.15248ZM10.0573 2.63143C12.3804 2.63143 14.3862 3.16266 15.7814 4.13148C17.1381 5.0737 17.9622 6.45449 17.9622 8.35271H19.9384C19.9384 5.77937 18.7724 3.80723 16.9098 2.51415C15.0868 1.2467 12.6462 0.660278 10.0573 0.660278V2.63143ZM4.08027 12.3847C2.8649 11.3203 2.15248 9.82418 2.15248 8.35271H0.17627C0.17627 10.4471 1.17623 12.4665 2.77696 13.866L4.08027 12.3847ZM10.0573 14.6328C9.18383 14.6328 8.33802 14.3726 7.35683 14.1006L6.82918 15.9998C7.70168 16.2413 8.85183 16.604 10.0573 16.604V14.6328ZM7.35683 14.1006C6.88649 13.9705 6.4873 14.1528 6.29758 14.2553C6.08217 14.3736 5.87961 14.5343 5.7146 14.6742C5.54366 14.8181 5.3569 14.9896 5.18399 15.1473C5.00316 15.3099 4.82234 15.4725 4.6346 15.6273C3.82139 16.2955 3.18604 16.5636 2.59614 16.3625L1.95585 18.2272C3.6297 18.7989 5.04269 17.8458 5.89147 17.148C6.11873 16.9608 6.3292 16.7735 6.51299 16.6059C6.70468 16.4325 6.85586 16.2935 6.99419 16.1762C7.13747 16.055 7.21355 16.0028 7.24517 15.985C7.30446 15.9535 7.11968 16.0796 6.82918 15.9998L7.35683 14.1006ZM2.7404 16.4256C2.9104 16.515 3.0431 16.6617 3.11489 16.8395C3.16232 16.9608 3.16035 17.0495 3.16035 17.0613C3.16035 17.079 3.16035 17.0258 3.21173 16.8642C3.30955 16.5557 3.49136 16.1398 3.71072 15.6499C3.91427 15.1936 4.1524 14.6673 4.30358 14.2307C4.3767 14.0158 4.4518 13.7606 4.4765 13.5122C4.49429 13.3397 4.5348 12.7819 4.08027 12.3847L2.77696 13.866C2.44397 13.5753 2.52005 13.2156 2.51017 13.3141C2.49327 13.4085 2.46781 13.5012 2.43409 13.5911C2.31848 13.9252 2.1258 14.3549 1.90545 14.8477C1.69993 15.307 1.46575 15.8332 1.32741 16.2718C1.26022 16.4827 1.18908 16.7528 1.18414 17.0209C1.1792 17.2476 1.22267 17.8527 1.81158 18.1651L2.7404 16.4256Z" fill="url(#paint0_linear_309_44)"/>
<defs>
<linearGradient id="paint0_linear_309_44" x1="-0.184419" y1="2.45911" x2="16.0641" y2="19.0938" gradientUnits="userSpaceOnUse">
<stop offset="0.00818746" stop-color="#FF005C"/>
<stop offset="0.587748" stop-color="white"/>
</linearGradient>
</defs>
</svg>
