<svg width="15" height="13" viewBox="0 0 15 13" fill="none" xmlns="http://www.w3.org/2000/svg">
<path d="M13.9863 12.0469L10.1191 8.90625C11.7129 6.72656 11.5488 3.60938 9.55664 1.64063C8.50195 0.585938 7.0957 0 5.5957 0C4.0957 0 2.68945 0.585938 1.63477 1.64063C-0.544922 3.82031 -0.544922 7.38281 1.63477 9.5625C2.68945 10.6172 4.0957 11.2031 5.5957 11.2031C7.02539 11.2031 8.36133 10.6641 9.41602 9.70313L13.3301 12.8672C13.4238 12.9375 13.541 12.9844 13.6582 12.9844C13.8223 12.9844 13.9629 12.9141 14.0566 12.7969C14.2441 12.5625 14.2207 12.2344 13.9863 12.0469ZM5.5957 10.1484C4.37695 10.1484 3.25195 9.67969 2.38477 8.8125C0.603516 7.03125 0.603516 4.14844 2.38477 2.39062C3.25195 1.52344 4.37695 1.05469 5.5957 1.05469C6.81445 1.05469 7.93945 1.52344 8.80664 2.39062C10.5879 4.17188 10.5879 7.05469 8.80664 8.8125C7.96289 9.67969 6.81445 10.1484 5.5957 10.1484Z" fill="white"/>
</svg>
