<svg width="16" height="20" viewBox="0 0 16 20" fill="none" xmlns="http://www.w3.org/2000/svg">
<path d="M12.794 5.27752C12.794 7.92957 10.6643 10.056 8 10.056C5.33666 10.056 3.20601 7.92951 3.20601 5.27752C3.20601 2.62565 5.33654 0.5 8 0.5C10.6644 0.5 12.794 2.62559 12.794 5.27752ZM8 19.4488C5.8433 19.4488 3.91409 19.272 2.53992 18.7866C1.85612 18.5451 1.34488 18.2391 1.0082 17.8726C0.681931 17.5175 0.5 17.0857 0.5 16.5326C0.5 15.9802 0.682662 15.5504 1.00987 15.1975C1.3478 14.8332 1.86088 14.5297 2.5465 14.2908C3.92415 13.8109 5.85391 13.6403 8 13.6403C10.1572 13.6403 12.0864 13.8171 13.4604 14.3025C14.1442 14.544 14.6553 14.85 14.9919 15.2164C15.3181 15.5715 15.5 16.0034 15.5 16.5565C15.5 17.1089 15.3173 17.5387 14.9901 17.8916C14.6522 18.256 14.1391 18.5594 13.4535 18.7983C12.0758 19.2782 10.1461 19.4488 8 19.4488Z" stroke="white"/>
</svg>
