<svg width="22" height="22" viewBox="0 0 22 22" fill="none" xmlns="http://www.w3.org/2000/svg">
<path d="M7.5 9.50005H14.5M6 17.4301H10L14.45 20.3901C14.6002 20.4902 14.7747 20.5476 14.955 20.5563C15.1353 20.565 15.3145 20.5246 15.4736 20.4394C15.6328 20.3542 15.7658 20.2274 15.8585 20.0725C15.9512 19.9177 16.0001 19.7405 16 19.5601V17.4301C19 17.4301 21 15.4301 21 12.4301V6.43005C21 3.43005 19 1.43005 16 1.43005H6C3 1.43005 1 3.43005 1 6.43005V12.4301C1 15.4301 3 17.4301 6 17.4301Z" stroke="white" stroke-width="1.5" stroke-miterlimit="10" stroke-linecap="round" stroke-linejoin="round"/>
</svg>
