<svg width="41" height="39" viewBox="0 0 41 39" fill="none" xmlns="http://www.w3.org/2000/svg">
<path d="M20.5033 30.8173V25.1616V30.8173ZM16.7404 2.19949L3.22889 12.6625C1.70812 13.8314 0.73327 16.301 1.06472 18.1485L3.65783 33.155C4.12576 35.832 6.77736 38 9.58493 38H31.4216C34.2097 38 36.8808 35.8131 37.3487 33.155L39.9418 18.1485C40.2538 16.301 39.2789 13.8314 37.7777 12.6625L24.2662 2.21834C22.18 0.597043 18.807 0.597042 16.7404 2.19949Z" fill="white"/>
<path d="M20.5033 30.8173V25.1616M16.7404 2.19949L3.22889 12.6625C1.70812 13.8314 0.73327 16.301 1.06472 18.1485L3.65783 33.155C4.12576 35.832 6.77736 38 9.58493 38H31.4216C34.2097 38 36.8808 35.8131 37.3487 33.155L39.9418 18.1485C40.2538 16.301 39.279 13.8314 37.7777 12.6625L24.2662 2.21834C22.18 0.597043 18.807 0.597042 16.7404 2.19949Z" stroke="#0D0E34" stroke-width="1.5" stroke-linecap="round" stroke-linejoin="round"/>
</svg>
