<svg width="21" height="15" viewBox="0 0 21 15" fill="none" xmlns="http://www.w3.org/2000/svg">
<path d="M15.0348 2.50283C13.4501 1.99429 11.0118 1.7422 8.60102 2.59349C6.06865 3.48771 3.72267 5.54801 2.47207 9.38472C2.39424 9.58178 2.31829 9.81834 2.26917 10.0694C2.22112 10.315 2.16569 10.7331 2.28231 11.1785C2.42509 11.7237 2.85494 12.3373 3.66173 12.5094C4.15806 12.6153 4.62052 12.5066 4.97209 12.3732C6.22535 12.2143 8.18993 12.069 10.1843 12.1289C12.3417 12.1938 14.2843 12.4947 15.4465 13.0969L15.7032 13.2299L15.9909 13.258C16.209 13.2793 16.4789 13.283 16.7604 13.2401C17.0153 13.2013 17.4413 13.1008 17.8251 12.7903C18.2933 12.4116 18.5637 11.8241 18.5018 11.1683C18.4509 10.6292 18.1887 10.183 17.9479 9.85975L17.8759 9.76303L17.7893 9.67907C17.1095 9.01975 15.6129 7.88637 13.6862 7.14934C14.1003 7.00268 14.5422 6.88726 14.986 6.8359L15.1722 6.81436L15.3474 6.74765C15.6079 6.64846 15.9191 6.50696 16.207 6.32459C16.4293 6.1838 16.9127 5.85326 17.1603 5.28464C17.3098 4.94139 17.3805 4.48838 17.2194 4.01029C17.0682 3.56136 16.7711 3.26575 16.5258 3.0862C16.1015 2.77569 15.5567 2.61042 15.0348 2.50283ZM3.88097 9.57715C3.88119 9.57664 3.88863 9.57384 3.90263 9.57029C3.88774 9.57587 3.88074 9.57765 3.88097 9.57715Z" fill="url(#paint0_linear_415_27)" stroke="#0D0E34" stroke-width="3"/>
<defs>
<linearGradient id="paint0_linear_415_27" x1="6.25345" y1="4.14285" x2="12.1701" y2="10.0595" gradientUnits="userSpaceOnUse">
<stop stop-color="#FF005C"/>
<stop offset="0.67745" stop-color="white"/>
</linearGradient>
</defs>
</svg>
